<?xml version="1.0" standalone="no"?>
<!DOCTYPE svg PUBLIC "-//W3C//DTD SVG 20010904//EN"
 "http://www.w3.org/TR/2001/REC-SVG-20010904/DTD/svg10.dtd">
<svg version="1.0" xmlns="http://www.w3.org/2000/svg"
 width="96.000000pt" height="96.000000pt" viewBox="0 0 96.000000 96.000000"
 preserveAspectRatio="xMidYMid meet">
<metadata>
Created by potrace 1.11, written by Peter Selinger 2001-2013
</metadata>
<g transform="translate(0.000000,96.000000) scale(0.100000,-0.100000)"
fill="#000000" stroke="none">
<path d="M284 868 c-41 -19 -44 -44 -44 -388 0 -348 2 -369 47 -389 32 -15
354 -15 386 0 45 20 47 41 47 389 0 348 -2 369 -47 389 -31 14 -360 14 -389
-1z m371 -358 l0 -305 -175 0 -175 0 -3 295 c-1 162 0 301 3 308 3 10 44 12
177 10 l173 -3 0 -305z"/>
<path d="M470 690 c0 -13 -10 -24 -24 -30 -39 -15 -60 -55 -50 -93 7 -24 23
-39 64 -62 58 -32 73 -61 45 -85 -19 -16 -65 1 -65 25 0 10 -10 15 -31 15 -27
0 -30 -3 -24 -22 8 -27 50 -68 71 -68 8 0 14 -9 14 -20 0 -11 7 -20 15 -20 8
0 15 8 15 18 0 9 15 24 32 32 71 33 58 109 -25 156 -41 23 -52 35 -52 54 0 20
6 26 28 28 22 3 30 -1 34 -17 4 -15 13 -21 35 -21 26 0 29 3 22 23 -9 30 -24
48 -51 58 -14 5 -23 17 -23 29 0 11 -7 20 -15 20 -8 0 -15 -9 -15 -20z"/>
</g>
</svg>
